# Blender v2.79 (sub 0) OBJ File: 'untitled.blend'
# www.blender.org
mtllib untitled.mtl
o Cube
v 1.000000 -0.900000 -0.900000
v 0.900000 -1.000000 -0.900000
v 0.900000 -0.900000 -1.000000
v 1.000000 -0.900000 0.900000
v 0.900000 -0.900000 1.000000
v 0.900000 -1.000000 0.900000
v -0.900000 -0.900000 1.000000
v -1.000000 -0.900000 0.900000
v -0.900000 -1.000000 0.900000
v -0.900000 -0.900000 -1.000000
v -0.900000 -1.000000 -0.900000
v -1.000000 -0.900000 -0.900000
v 0.900000 0.900000 -0.999999
v 0.900000 1.000000 -0.899999
v 1.000000 0.900000 -0.899999
v 0.899999 0.900000 1.000001
v 0.999999 0.900000 0.900001
v 0.899999 1.000000 0.900001
v -1.000000 0.900000 0.900000
v -0.900000 0.900000 1.000000
v -0.900000 1.000000 0.900000
v -1.000000 0.900000 -0.900000
v -0.900000 1.000000 -0.900000
v -0.900000 0.900000 -1.000000
vt 0.612159 0.895293
vt 0.472094 0.646289
vt 0.612159 0.646289
vt 0.160840 0.618623
vt 0.300905 0.369619
vt 0.300905 0.618623
vt 0.316467 0.369619
vt 0.456532 0.618622
vt 0.316467 0.618622
vt 0.472094 0.618622
vt 0.612159 0.369619
vt 0.612159 0.618622
vt 0.612159 0.341952
vt 0.472094 0.092949
vt 0.612159 0.092949
vt 0.767786 0.618622
vt 0.775567 0.618622
vt 0.767786 0.632456
vt 0.767786 0.369619
vt 0.767786 0.355785
vt 0.775567 0.369619
vt 0.464313 0.092949
vt 0.472094 0.079115
vt 0.472094 0.895293
vt 0.472094 0.909126
vt 0.464313 0.895293
vt 0.612159 0.632456
vt 0.619940 0.646289
vt 0.619940 0.341952
vt 0.612159 0.355785
vt 0.456532 0.369619
vt 0.456532 0.355786
vt 0.464313 0.369619
vt 0.464313 0.618622
vt 0.456532 0.632456
vt 0.160840 0.632456
vt 0.619940 0.895293
vt 0.612159 0.079115
vt 0.627721 0.369619
vt 0.472094 0.341952
vt 0.316467 0.632456
vt 0.627721 0.618622
vt 0.472094 0.369619
vt 0.160840 0.369619
vt 0.300905 0.632456
vt 0.627721 0.355785
vt 0.464313 0.341952
vn 0.0000 0.0000 -1.0000
vn 0.0000 -1.0000 0.0000
vn -1.0000 -0.0000 -0.0000
vn 0.0000 1.0000 0.0000
vn 0.0000 -0.0000 1.0000
vn 0.5774 -0.5774 -0.5774
vn 0.5774 -0.5773 0.5774
vn -0.5774 -0.5774 0.5774
vn -0.5774 -0.5774 -0.5774
vn 0.5774 0.5774 -0.5774
vn 0.5773 0.5774 0.5774
vn -0.5774 0.5773 0.5774
vn -0.5774 0.5774 -0.5774
vn 0.7071 -0.7071 0.0000
vn 0.0000 -0.7071 -0.7071
vn 0.7071 0.0000 -0.7071
vn -0.0000 -0.7071 0.7071
vn 0.7071 -0.0000 0.7071
vn -0.7071 -0.7071 -0.0000
vn -0.7071 0.0000 0.7071
vn -0.7071 0.0000 -0.7071
vn 0.7071 0.7071 0.0000
vn 0.0000 0.7071 -0.7071
vn -0.0000 0.7071 0.7071
vn -0.7071 0.7071 -0.0000
vn 1.0000 -0.0000 0.0000
usemtl Material
s off
f 3/1/1 24/2/1 13/3/1
f 2/4/2 9/5/2 11/6/2
f 8/7/3 22/8/3 12/9/3
f 23/10/4 18/11/4 14/12/4
f 16/13/5 7/14/5 5/15/5
f 1/16/6 2/17/6 3/18/6
f 4/19/7 5/20/7 6/21/7
f 7/14/8 8/22/8 9/23/8
f 10/24/9 11/25/9 12/26/9
f 13/3/10 14/27/10 15/28/10
f 16/13/11 17/29/11 18/30/11
f 19/31/12 20/32/12 21/33/12
f 22/8/13 23/34/13 24/35/13
f 4/19/14 2/17/14 1/16/14
f 11/6/15 3/36/15 2/4/15
f 13/3/16 1/37/16 3/1/16
f 5/15/17 9/23/17 6/38/17
f 17/39/18 5/20/18 4/19/18
f 12/9/19 9/5/19 8/7/19
f 20/40/20 8/22/20 7/14/20
f 22/8/21 10/41/21 12/9/21
f 18/11/22 15/42/22 14/12/22
f 24/2/23 14/12/23 13/3/23
f 21/43/24 16/13/24 18/11/24
f 23/10/25 19/31/25 21/43/25
f 15/42/26 4/19/26 1/16/26
f 3/1/1 10/24/1 24/2/1
f 2/4/2 6/44/2 9/5/2
f 8/7/3 19/31/3 22/8/3
f 23/10/4 21/43/4 18/11/4
f 16/13/5 20/40/5 7/14/5
f 4/19/14 6/21/14 2/17/14
f 11/6/15 10/45/15 3/36/15
f 13/3/16 15/28/16 1/37/16
f 5/15/17 7/14/17 9/23/17
f 17/39/18 16/46/18 5/20/18
f 12/9/19 11/6/19 9/5/19
f 20/40/20 19/47/20 8/22/20
f 22/8/21 24/35/21 10/41/21
f 18/11/22 17/39/22 15/42/22
f 24/2/23 23/10/23 14/12/23
f 21/43/24 20/40/24 16/13/24
f 23/10/25 22/8/25 19/31/25
f 15/42/26 17/39/26 4/19/26
